<?xml version="1.0" encoding="utf-8"?>
<!-- Generator: Adobe Illustrator 18.1.1, SVG Export Plug-In . SVG Version: 6.00 Build 0)  -->
<!DOCTYPE svg PUBLIC "-//W3C//DTD SVG 1.1//EN" "http://www.w3.org/Graphics/SVG/1.1/DTD/svg11.dtd">
<svg version="1.1" id="Layer_1" xmlns="http://www.w3.org/2000/svg" xmlns:xlink="http://www.w3.org/1999/xlink" x="0px" y="0px"
	 viewBox="0 660.6 612 131.4" enable-background="new 0 660.6 612 131.4" xml:space="preserve">
<g>
	<g>
		<path fill="#F7941E" d="M40.4,791.9H3.1c-1.8,0-3.1-1.6-3.1-3.4s1.3-3.1,3.1-3.1h37.2c14.7,0,62.7-4.5,62.7-61.1
			c0-17.1-5-30.4-15-40.1c-18.4-17.8-47.2-17.1-47.5-17.1H6.6v56.1c0,1.8-1.3,3.1-3.1,3.1S0,725,0,723.4v-59.5
			c0-1.6,1.3-3.1,3.1-3.1h37.2c1,0,31.7-0.8,51.9,18.6c11.3,11,17.1,26,17.1,44.6C109.4,788.5,51.9,791.9,40.4,791.9z"/>
	</g>
	<g>
		<path fill="#F7941E" d="M221.9,791.9c-1,0-2.1-0.5-2.9-1.6l-37.2-64.5c-0.5-1-0.5-2.4,0-3.1c0.5-1,1.8-1.6,2.9-1.6
			c0.3,0,16.5,0.8,26.2-8.7c5-5,7.6-11.8,7.6-20.2c0-6.8-2.1-12.3-6.3-16.5c-8.9-8.7-24.4-8.4-24.4-8.4h-34.1v56.1
			c0,1.8-1.3,3.1-3.1,3.1s-3.1-1.3-3.1-3.1v-59.5c0-1.8,1.3-3.1,3.1-3.1h37.2c0.5,0,18.1-0.5,28.9,10.2c5.5,5.2,8.4,12.3,8.4,21
			c0,10.5-3.1,18.9-9.7,24.9c-7.9,7.6-18.9,9.7-25.4,10.2l34.6,59.8c0.8,1.6,0.3,3.4-1,4.5C223.2,791.6,222.5,791.9,221.9,791.9z"/>
	</g>
	<g>
		<path fill="#F7941E" d="M302.7,791.9c-1.8,0-3.1-1.3-3.1-3.1v-54.3l-42-68.7c-0.8-1.6-0.5-3.4,1-4.5c1.6-1,3.4-0.5,4.5,1
			l42.5,69.5c0.3,0.5,0.5,1,0.5,1.6v55.1C306.1,790.3,304.6,791.9,302.7,791.9z"/>
	</g>
	<g>
		<path fill="#F7941E" d="M464.6,791.9c-1.3,0-2.4-0.8-2.9-1.8l-50.9-118l-51.7,118c-0.8,1.6-2.6,2.4-4.2,1.6s-2.4-2.6-1.6-4.2
			l54.6-124.6c0.5-1,1.6-1.8,2.9-1.8l0,0c1.3,0,2.4,0.8,2.9,1.8l53.8,124.6c0.8,1.6,0,3.4-1.6,4.2
			C465.6,791.6,465.1,791.9,464.6,791.9z"/>
	</g>
	<g>
		<path fill="#F7941E" d="M608.9,791.9c-1,0-1.8-0.5-2.6-1.3l-91.4-117.3v115.4c0,1.8-1.3,3.1-3.1,3.1c-1.8,0-3.1-1.3-3.1-3.1V663.9
			c0-1.3,0.8-2.6,2.1-3.1s2.6,0,3.7,1l91.3,117.3v-52.5c0-1.8,1.3-3.1,3.1-3.1s3.1,1.3,3.1,3.1v61.9c0,1.3-0.8,2.6-2.1,3.1
			C609.4,791.6,609.1,791.9,608.9,791.9z"/>
	</g>
</g>
</svg>
