<?xml version="1.0" encoding="utf-8"?>
<!-- Generator: Adobe Illustrator 13.0.0, SVG Export Plug-In . SVG Version: 6.00 Build 14948)  -->
<!DOCTYPE svg PUBLIC "-//W3C//DTD SVG 1.1//EN" "http://www.w3.org/Graphics/SVG/1.1/DTD/svg11.dtd">
<svg version="1.1" id="Layer_1" xmlns="http://www.w3.org/2000/svg" xmlns:xlink="http://www.w3.org/1999/xlink" x="0px" y="0px"
	 width="252px" height="144px" viewBox="0 0 252 144" enable-background="new 0 0 252 144" xml:space="preserve">
<g>
	<path fill="#545456" d="M37.722,67.333c0,4.978,1.944,6.611,7.156,6.611c4.2,0,7.778-0.7,8.867-0.933
		c0.622-0.078,0.855,0.232,0.855,0.855v3.188c0,0.467-0.233,0.7-0.623,0.855c-1.866,0.467-6.611,1.011-10.267,1.011
		c-10.033,0-12.367-4.044-12.367-11.588v-6.222c0-7,2.878-10.812,12.911-10.812c0.544,0,1.245,0,1.945,0.078
		c-1.089-1.011-1.789-2.489-1.789-4.978c0-6.533,4.745-9.022,11.745-9.022c8.089,0,13.3,3.111,13.3,13.611V53.1
		c2.489-1.322,6.222-2.722,10.422-2.722c3.889,0,7.233,1.244,7.233,7.778v14.078c0,1.556,0.466,1.944,1.478,1.944
		c0.389,0,0.622,0,1.167-0.078c0.467-0.077,0.7,0,0.7,0.623V77.6c0,0.467-0.156,0.623-0.622,0.778
		c-0.623,0.233-2.1,0.389-3.967,0.389c-4.589,0-5.444-2.645-5.444-5.833V59.4c0-3.267-1.633-3.966-3.578-3.966
		c-2.1,0-4.744,0.777-7.466,2.1v14.544c0,1.245,0.155,1.633,1.478,1.79l1.556,0.077c0.467,0.078,0.544,0.233,0.544,0.622v3.111
		c0,0.389-0.156,0.622-0.622,0.622h-12.6c-0.467,0-0.622-0.155-0.622-0.622v-3.111c0-0.467,0.155-0.544,0.544-0.622l1.555-0.155
		c1.167-0.156,1.4-0.467,1.4-1.711V50.3c0-6.611-2.1-9.1-6.922-9.1c-3.967,0-5.833,1.944-5.833,5.211
		c0,2.333,0.934,3.733,2.645,4.433l0.7,0.078c0.622,0.155,0.622,0.466,0.622,0.855l-0.467,7.778c-0.078,0.622-0.311,0.7-0.855,0.7
		h-2.567c-0.466,0-0.622-0.233-0.7-0.7l-0.855-4.278c-1.167-0.156-2.956-0.311-4.667-0.311c-4.511,0-6.144,2.722-6.144,6.066v6.3
		H37.722z"/>
	<path fill="#545456" d="M117.833,72.233c0,1.556,0.466,1.944,1.4,1.944c0.389,0,0.622,0,1.245-0.078c0.466-0.077,0.7,0,0.7,0.623
		V77.6c0,0.467-0.155,0.623-0.622,0.778c-0.7,0.233-2.1,0.389-3.967,0.389c-2.411,0-3.811-0.7-4.511-1.866
		c-1.867,0.934-5.055,1.943-8.944,1.943c-8.245,0-9.333-3.732-9.333-7.933v-1.089c0-4.355,1.245-8.011,10.422-8.011
		c2.878,0,5.444,0.156,7.078,0.311v-2.8c0-3.578-0.933-4.589-5.133-4.589c-1.867,0-3.966,0.078-5.289,0.311l-0.856,4.044
		c-0.078,0.622-0.233,0.778-0.7,0.778h-2.878c-0.467,0-0.622-0.156-0.7-0.778l-0.389-6.611C95.278,51.544,95.278,51.233,95.9,51
		c1.089-0.311,6.222-0.622,10.267-0.622c7.311,0,11.667,0.933,11.667,9.178V72.233z M100.333,70.989
		c0,2.644,1.555,3.267,4.433,3.267c2.256,0,3.967-0.467,6.456-1.479v-6.222c-2.411-0.078-4.2-0.156-6.222-0.156
		c-3.344,0-4.667,1.011-4.667,3.345V70.989z"/>
	<path fill="#545456" d="M149.1,72.233c0,1.556,0.467,1.944,1.479,1.944c0.389,0,0.622,0,1.166-0.078c0.467-0.077,0.7,0,0.7,0.623
		V77.6c0,0.467-0.155,0.623-0.622,0.778c-0.622,0.233-2.1,0.389-3.967,0.389c-2.334,0-3.733-0.622-4.512-1.789
		c-1.788,0.856-5.211,1.789-9.021,1.789c-7.934,0-10.267-3.423-10.267-10.811v-6.844c0-7.467,2.333-10.889,10.267-10.889
		c3.344,0,6.378,0.855,8.089,1.556v-8.556c0-1.478-0.233-1.633-1.399-1.789l-1.09-0.156c-0.622-0.078-0.699-0.311-0.699-0.855
		v-2.256c0-0.544,0.155-0.7,0.699-0.778l4.278-0.7c1.556-0.311,2.644-0.467,3.422-0.467c1.011,0,1.399,0.622,1.399,1.322v34.689
		H149.1z M142.566,56.444c-1.555-0.7-3.422-1.4-5.988-1.4c-3.967,0-5.756,1.011-5.756,6.067v7c0,4.666,1.789,5.988,5.756,5.988
		c2.333,0,4.434-0.622,5.988-1.322V56.444z"/>
	<path fill="#545456" d="M162.089,67.178v0.156c0,4.511,0.7,6.611,7.622,6.611c4.2,0,7.467-0.622,9.723-1.011
		c0.934-0.156,1.089-0.078,1.089,0.777v2.955c0,0.934-0.155,1.012-1.011,1.168c-1.634,0.311-6.534,1.01-11.201,1.01
		c-10.11,0-12.678-3.266-12.678-11.588v-5.833c0-9.411,4.9-11.123,12.912-11.123c7.699,0,11.666,1.478,11.666,8.556
		c0,7.156-3.733,8.322-12.444,8.322H162.089z M162.089,62.822h5.444c5.289,0,6.223-0.622,6.223-3.733
		c0-3.033-1.012-4.355-5.445-4.355c-4.744,0-6.145,1.4-6.145,6.456v1.633H162.089z"/>
	<path fill="#545456" d="M200.666,77.678c-0.232,0.467-0.389,0.622-0.855,0.622h-4.899c-0.467,0-0.622-0.155-0.855-0.622
		l-8.322-20.844c-0.467-1.011-0.622-1.245-1.399-1.4l-1.479-0.156c-0.311-0.078-0.467-0.311-0.467-0.622v-3.189
		c0-0.311,0.156-0.544,0.467-0.544h11.512c0.467,0,0.544,0.155,0.544,0.544v3.111c0,0.311-0.155,0.544-0.467,0.544l-0.933,0.156
		c-1.245,0.078-1.4,0.311-0.855,1.556l5.6,14.778l5.678-14.623c0.467-1.4,0.311-1.478-0.934-1.555l-1.012-0.156
		c-0.311,0-0.467-0.233-0.467-0.544V51.7c0-0.623,0.078-0.7,0.623-0.7h9.411c0.389,0,0.544,0.233,0.544,0.544v3.189
		c0,0.311-0.155,0.622-0.467,0.622l-1.477,0.156c-0.778,0.078-0.934,0.311-1.245,1.167L200.666,77.678z"/>
	<path fill="#15A8DB" d="M26.6,53.956v-3.033c0-0.233-0.156-0.467-0.311-0.544C26.211,50.3,26.056,50.3,25.9,50.3
		c-0.078,0-0.155,0-0.311,0.078l-25.2,11.978C0.156,62.434,0,62.745,0,62.978v2.645c0,0.233,0.156,0.544,0.389,0.623l25.278,12.677
		C25.745,79,25.822,79,25.978,79c0.156,0,0.233,0,0.389-0.078c0.233-0.155,0.311-0.311,0.311-0.544v-3.034
		c0-0.232-0.155-0.544-0.389-0.621L5.444,64.3l20.767-9.722C26.444,54.5,26.6,54.267,26.6,53.956z"/>
	<path fill="#15A8DB" d="M251.611,62.355L226.334,50.3c-0.078-0.078-0.156-0.078-0.312-0.078s-0.233,0-0.39,0.078
		c-0.155,0.156-0.311,0.312-0.311,0.544v3.034c0,0.233,0.156,0.544,0.389,0.622l20.845,9.8l-20.767,10.345
		c-0.233,0.078-0.389,0.389-0.389,0.622V78.3c0,0.233,0.155,0.467,0.311,0.544c0.078,0.078,0.233,0.078,0.389,0.078
		c0.078,0,0.234,0,0.312-0.078l25.278-12.677c0.232-0.078,0.389-0.389,0.389-0.622V62.9C252,62.745,251.844,62.434,251.611,62.355z"
		/>
	<path fill="#15A8DB" d="M225.944,36.533c-0.155-0.155-0.312-0.311-0.544-0.311h-2.566c-0.312,0-0.545,0.233-0.623,0.467
		l-13.455,46.588c-0.078,0.234,0,0.389,0.078,0.623c0.154,0.155,0.311,0.311,0.544,0.311h2.566c0.312,0,0.544-0.233,0.622-0.467
		l13.456-46.588C226.178,36.922,226.1,36.689,225.944,36.533z"/>
</g>
<path fill="#15A8DB" d="M139.066,94.867v5.6h5.6v1.322h-5.6v5.6h-1.322v-5.6h-5.6v-1.322h5.6v-5.6H139.066z"/>
<text transform="matrix(1 0 0 1 148.5 107.5)" fill="#535456" font-family="'MyriadPro-Regular'" font-size="27">Python</text>
</svg>
